<?xml version="1.0" encoding="UTF-8"?>
<svg id="Laag_5" data-name="Laag 5" xmlns="http://www.w3.org/2000/svg" viewBox="0 0 841.89 400.54">
  <defs>
    <style>
      .cls-1 {
        fill: #e36414;
      }

      .cls-2 {
        fill: #77151c;
      }
    </style>
  </defs>
  <g>
    <rect class="cls-2" x="160.52" y="275.29" width="499.73" height="3.18"/>
    <path class="cls-2" d="M160.2,277.93h44.09v1.81c0,8.4-6.82,15.22-15.22,15.22h-28.87v-17.03h0Z"/>
    <path class="cls-1" d="M233.44,253.54c-4.47.95-7.3,3.62-7.3,14.01s.49,5.95,2.1,11.87c1.61,5.91-.9,5.53,1.55,13.02,2.45,7.49,4.25,10.15,9.08,12.47,4.84,2.32,6.94,1.62,9.76.93s4.28-3.27,7.05-3.77,6.26,1.89,11,2.48,16.76.35,19.09-6.68c2.33-7.03-1.07-39.11-1.07-39.11,0,0-5.09-.14-8.52-1.51s1.01-3.47-4.19-5.5c-5.2-2.03-20.02.96-24.08,2.37-4.06,1.42-10.01-1.53-14.48-.58Z"/>
    <path class="cls-2" d="M297.07,260.6s.64-4.45-.22-8.14-5.16-5.68-8.82-5.07-6.45,6.66-6.85,8.15-1.1,5.64-.99,7.56,2.69,30.84,3.26,33.43,2.38,5.07,3.65,7.07,8.04,3.45,13.82-3.16c5.78-6.61,1.22-1.86,2.27-6.37,1.05-4.51-4.05-22.39-4.05-22.39l-2.09-11.07Z"/>
    <path class="cls-1" d="M315.69,247.5c-5.64,1.34-9.03,2.21-12.87,5.67s-5.04,5.66-6.54,9.3,2.24,28.82,3.9,31.82,4.78,7.63,7.82,9.92,9.3,2.21,15.26.73,8.02-2.07,14.21-5.7c6.19-3.63,12.24-11.48,15.62-17.31,3.38-5.83,5.72-11.82,3.88-17.99s-14.16-12.43-20.05-13.76c-5.88-1.33-15.59-4.01-21.24-2.67Z"/>
    <path class="cls-2" d="M374.36,256.46c4.46,2.85,1.05,25.67,1.05,25.67,0,0,5.76,14.99,1.53,18.74s-13.23-.35-19.71.06c-6.48.41-3.19,5.56-10.68,3.48s-8.7-8.9-8.77-12.18c-.07-3.27-1.44-25.15,4.53-30.52s27.58-8.1,32.05-5.24Z"/>
    <path class="cls-1" d="M420.88,259.11c.39-2.73-.97-4.33-4.72-5.63s-7.37-2.87-11.4-2.87-25.61,4.08-31.83,10.34.13,36.5,1.68,40.69c1.55,4.2,5.64,4.24,11.63,5.71,5.99,1.47,18.06-1.6,22.98-2.61,4.91-1.02,9.25-2.06,12-4.5s-.72-38.39-.33-41.12Z"/>
    <path class="cls-2" d="M438.55,240.62c8.22,0,7.29,14.45,13.57,20.09,6.28,5.64,18.19.63,20.07,7.21,1.88,6.58-12.54,10.03-14.42,16.93-1.88,6.9,11.74,19.39,5.09,25.68-6.65,6.29-13.2-3.68-24.19-3.24-10.99.44-20.01,9.53-26.6,5.46-6.59-4.07,6.01-20.71,4.71-26.82s-14.5-11.23-14.49-17.69c.01-6.46,14.52-4.7,18.81-9.72s9.24-17.9,17.46-17.9Z"/>
    <path class="cls-1" d="M462.73,251.31c-7.49,1.58-7.73,3.09-11.41,6.62s1.43,24.44,3.27,30.16,3.88,8.41,8.07,11.9,8.32,2.71,16.38,3.33c8.07.62,12.68-.34,19.31-5.89,6.63-5.55,8.6-26.96,8.6-26.96,0,0-.17-9.55-5.54-13.66-5.37-4.11-31.2-7.08-38.7-5.5Z"/>
    <path class="cls-2" d="M502.87,253.55c3.13-2.66,4.38-3.23,5.9-3.47s4.39-1.25,8.14-.22,6.41,8.18,6.53,12.52.51,15.17.57,20.85c.06,5.68,4.99,11.38,2.45,17.02s-9.22,7.46-12.95,8.04-5.92,1.44-10.47-.54c-4.56-1.98-2.61-13.16-2.83-8.75-.22,4.41,1.71-18.04,2.08-25.46.37-7.42-3.52-16.26.58-19.99Z"/>
    <path class="cls-1" d="M541.64,256.25c-6.91,0-7.94.97-11.82,3.7s-5.94,4.84-8.43,11.41c-2.5,6.57-3.98,20.95-.21,25.05s16.91,6.82,23.98,7.44c7.08.62,20.37,1.55,28.23-1.71,7.86-3.26,9.85-10.4,9.85-10.4,0,0,4.14-21.32-.71-26.01s-14.5-4.35-21.22-5.78-12.76-3.7-19.68-3.7Z"/>
    <path class="cls-2" d="M600.68,253.32c-6.75-.91-15.88,5.69-18.24,8.64s-1.95,35.82,1.39,37.49,4.63-2.48,7.49-2.39c2.86.09,17.96,4.04,23.65,1.72,5.7-2.33,3.01-21.13,3.01-21.13,0,0,3.47-12.98,2.59-16.13s-13.14-7.29-19.89-8.2Z"/>
    <path class="cls-1" d="M647.23,259.41c7.92.74,13.81-1.76,16.45,1.72,2.64,3.48,3.11,10.27,6.53,13.53s10.34,3.18,11.35,8.04c1.01,4.86-3.97,13.34-10.27,16.77-6.3,3.43-18.9,3.67-27.35,2.73-8.45-.94-18.8,1.36-24.2-5.9s-4.02-12.75-4.15-16.93c-.13-4.18,9.58-18.68,14.44-20.9s9.27.2,17.2.94Z"/>
  </g>
  <g>
    <path class="cls-2" d="M108.96,156.14c0,7.47,1.3,12.85,3.92,16.13,2.61,3.29,6.7,4.93,12.28,4.93,5.13,0,10.01-1.19,14.65-3.58,4.63-2.38,8.53-5.69,11.68-9.92l3.1,1.35c-2.97,7.65-8.12,13.75-15.46,18.29-7.34,4.55-15.01,6.82-23.02,6.82-10.44,0-17.98-2.63-22.61-7.9-4.64-5.27-6.95-13.7-6.95-25.31,0-7.47.94-15.26,2.83-23.35,1.89-8.1,4.5-15.34,7.83-21.74,4.32-8.19,9.56-14.42,15.73-18.7,6.16-4.27,13.07-6.41,20.72-6.41,7.2,0,12.76,1.55,16.67,4.66s5.87,7.58,5.87,13.43c0,4.05-.81,7.13-2.43,9.25-1.62,2.12-3.96,3.17-7.02,3.17-1.53,0-2.95-.29-4.25-.88-1.31-.58-2.45-1.46-3.44-2.63,1.62-.81,3.06-2.45,4.32-4.93,1.26-2.47,1.89-4.97,1.89-7.49s-.72-4.63-2.16-6.08c-1.44-1.44-3.47-2.16-6.07-2.16-3.96,0-7.88,2.41-11.75,7.22-3.87,4.82-7.25,11.45-10.12,19.91-1.98,5.76-3.51,11.77-4.59,18.02-1.08,6.26-1.62,12.22-1.62,17.89Z"/>
    <path class="cls-2" d="M150,172.61c0-1.17.09-2.5.27-3.98.18-1.48.45-3.08.81-4.79l14.44-67.63,19.98-2.7-15.52,72.9c-.18.81-.32,1.55-.4,2.23-.09.68-.14,1.37-.14,2.09,0,1.8.43,3.08,1.28,3.85.85.77,2.27,1.15,4.25,1.15,2.52,0,4.9-1.1,7.15-3.31,2.25-2.2,3.92-5.06,5-8.57h5.67c-2.88,8.19-6.75,14.4-11.61,18.63-4.86,4.23-10.44,6.35-16.74,6.35-4.5,0-8.03-1.42-10.6-4.25s-3.85-6.82-3.85-11.95Z"/>
    <path class="cls-2" d="M208.05,175.71c2.34,0,4.43-1.01,6.28-3.04,1.84-2.03,3.35-4.97,4.52-8.84l9.18-43.33h19.44l-9.72,45.9c-.18.81-.32,1.55-.41,2.23-.09.68-.13,1.37-.13,2.09,0,1.8.43,3.08,1.28,3.85.85.77,2.27,1.15,4.25,1.15,2.34,0,4.45-1.03,6.34-3.1,1.89-2.07,3.42-4.99,4.59-8.77h5.67c-2.88,8.28-6.62,14.51-11.21,18.7-4.59,4.18-9.9,6.28-15.93,6.28-3.87,0-6.98-1.1-9.31-3.31-2.34-2.2-3.69-5.38-4.05-9.52-2.61,4.32-5.56,7.54-8.84,9.65-3.29,2.12-7,3.17-11.14,3.17-4.5,0-8.03-1.42-10.6-4.25s-3.85-6.82-3.85-11.95c0-1.17.09-2.5.27-3.98.18-1.48.45-3.08.81-4.79l9.18-43.33h19.44l-9.72,45.9c-.18.72-.29,1.37-.34,1.96-.05.59-.07,1.19-.07,1.82,0,1.8.34,3.17,1.01,4.12.68.95,1.69,1.42,3.04,1.42Z"/>
    <path class="cls-2" d="M271.64,188.81c-6.03,0-10.69-1.51-13.97-4.52-3.29-3.01-4.93-7.27-4.93-12.76,0-1.26.09-2.52.27-3.78.18-1.26.4-2.56.67-3.92l14.44-67.63,19.98-2.7-6.48,30.38c2.16-1.35,4.07-2.32,5.74-2.9,1.66-.58,3.44-.88,5.33-.88,5.31,0,9.29,1.91,11.95,5.74,2.65,3.83,3.98,9.61,3.98,17.35,0,5.31-.81,10.76-2.43,16.33-1.62,5.58-3.87,10.44-6.75,14.58-3.33,4.86-7.34,8.53-12.02,11-4.68,2.48-9.95,3.71-15.79,3.71ZM272.04,169.5c0,2.07.61,3.62,1.82,4.66,1.21,1.04,2.99,1.55,5.33,1.55,4.05,0,7.69-3.55,10.94-10.67,3.24-7.11,4.86-14.58,4.86-22.41,0-3.78-.65-6.89-1.96-9.31-1.31-2.43-3.04-3.65-5.2-3.65-1.44,0-2.97.23-4.59.67-1.62.45-2.75,1.04-3.38,1.75l-7.42,34.29c-.09.54-.18,1.08-.27,1.62-.09.54-.14,1.04-.14,1.48Z"/>
    <path class="cls-2" d="M411.9,102.95c-2.43,0-5.11-.2-8.03-.61-2.93-.4-6.55-1.06-10.87-1.96l-5.67,26.87h19.71l-2.16,9.99h-19.71l-10.94,50.76h-19.44l19.44-90.18c-6.21.27-10.69,2.66-13.43,7.16-2.75,4.5-4.12,11.43-4.12,20.79,0,1.71.11,3.2.34,4.46.22,1.26.61,2.48,1.15,3.65.18.36.29.61.34.74.04.14.07.25.07.34-5.04,0-8.71-1.06-11-3.17-2.3-2.11-3.44-5.42-3.44-9.92,0-10.71,4.03-19.24,12.08-25.58,8.05-6.35,19.37-9.52,33.95-9.52.81,0,1.8.05,2.97.13,1.17.09,3.1.27,5.8.54,3.6.36,6.37.61,8.3.74,1.93.14,3.71.2,5.33.2,2.43,0,4.63-.14,6.61-.41,1.98-.27,3.82-.67,5.54-1.21-.09.18-.5,1.58-1.21,4.19-.72,2.61-1.58,4.68-2.57,6.21-.99,1.53-2.23,2.77-3.71,3.71-1.48.95-3.26,1.64-5.33,2.09Z"/>
    <path class="cls-2" d="M419.19,188h-19.44l14.31-67.5h19.44l-1.75,8.37c3.96-3.33,7.09-5.56,9.38-6.68,2.3-1.12,4.61-1.69,6.95-1.69,2.79,0,5.04.97,6.75,2.9,1.71,1.94,2.56,4.34,2.56,7.22s-.9,5.13-2.7,7.02c-1.8,1.89-4.14,2.83-7.02,2.83-1.53,0-2.72-.36-3.58-1.08-.86-.72-1.46-2.2-1.82-4.46-.27-1.44-.59-2.36-.95-2.77-.36-.41-.86-.61-1.48-.61-1.53,0-2.97.32-4.32.95-1.35.63-3.2,2.02-5.54,4.19l-10.8,51.3Z"/>
    <path class="cls-2" d="M455.91,172.61c0-1.17.09-2.5.27-3.98.18-1.48.45-3.08.81-4.79l9.18-43.33h19.44l-9.72,45.9c-.18.81-.32,1.55-.41,2.23-.09.68-.13,1.37-.13,2.09,0,1.8.43,3.08,1.28,3.85.85.77,2.27,1.15,4.25,1.15,2.52,0,4.9-1.1,7.16-3.31,2.25-2.2,3.92-5.06,5-8.57h5.67c-2.88,8.19-6.75,14.4-11.61,18.63-4.86,4.23-10.44,6.35-16.74,6.35-4.5,0-8.03-1.42-10.6-4.25-2.57-2.83-3.85-6.82-3.85-11.95ZM490.33,102.54c0,2.97-1.06,5.49-3.17,7.56-2.12,2.07-4.66,3.1-7.63,3.1s-5.49-1.03-7.56-3.1c-2.07-2.07-3.11-4.59-3.11-7.56s1.03-5.51,3.11-7.63c2.07-2.11,4.59-3.17,7.56-3.17s5.51,1.06,7.63,3.17c2.11,2.12,3.17,4.66,3.17,7.63Z"/>
    <path class="cls-2" d="M497.76,120.5h4.46l4.05-18.63,19.98-2.7-4.59,21.33h8.1l-1.08,5.4h-8.1l-8.64,40.5c-.18.81-.32,1.55-.41,2.23-.09.68-.13,1.37-.13,2.09,0,1.8.43,3.08,1.28,3.85.85.77,2.27,1.15,4.25,1.15,2.52,0,4.9-1.1,7.16-3.31,2.25-2.2,3.92-5.06,5-8.57h5.67c-2.88,8.19-6.75,14.4-11.61,18.63-4.86,4.23-10.44,6.35-16.74,6.35-4.5,0-8.03-1.42-10.6-4.25-2.57-2.83-3.85-6.82-3.85-11.95,0-1.17.09-2.5.27-3.98.18-1.48.45-3.08.81-4.79l8.1-37.94h-4.46l1.08-5.4Z"/>
    <path class="cls-2" d="M528,172.61c0-1.17.09-2.5.27-3.98.18-1.48.45-3.08.81-4.79l9.18-43.33h19.44l-9.72,45.9c-.18.81-.32,1.55-.41,2.23-.09.68-.13,1.37-.13,2.09,0,1.8.43,3.08,1.28,3.85.85.77,2.27,1.15,4.25,1.15,2.52,0,4.9-1.1,7.16-3.31,2.25-2.2,3.92-5.06,5-8.57h5.67c-2.88,8.19-6.75,14.4-11.61,18.63-4.86,4.23-10.44,6.35-16.74,6.35-4.5,0-8.03-1.42-10.6-4.25-2.57-2.83-3.85-6.82-3.85-11.95ZM562.42,102.54c0,2.97-1.06,5.49-3.17,7.56-2.12,2.07-4.66,3.1-7.63,3.1s-5.49-1.03-7.56-3.1c-2.07-2.07-3.11-4.59-3.11-7.56s1.03-5.51,3.11-7.63c2.07-2.11,4.59-3.17,7.56-3.17s5.51,1.06,7.63,3.17c2.11,2.12,3.17,4.66,3.17,7.63Z"/>
    <path class="cls-2" d="M598.06,119.82c3.51,0,6.21.61,8.1,1.82s2.83,2.99,2.83,5.33l1.35-6.48h19.44l-20.52,96.39-20.38,4.86,8.5-40.37c-2.34,2.43-4.84,4.28-7.49,5.54-2.66,1.26-5.51,1.89-8.57,1.89-5.58,0-9.97-1.89-13.16-5.67-3.19-3.78-4.79-9.13-4.79-16.06,0-5.04.77-10.3,2.29-15.8,1.53-5.49,3.64-10.48,6.34-14.98,3.33-5.31,7.2-9.38,11.61-12.22,4.41-2.83,9.22-4.25,14.45-4.25ZM607.78,132.78c-.18-1.35-.77-2.45-1.75-3.31-.99-.85-2.25-1.28-3.78-1.28-4.95,0-9.34,4.14-13.16,12.42-3.83,8.28-5.74,16.47-5.74,24.57,0,3.51.49,6.14,1.49,7.9.99,1.75,2.74,2.63,5.26,2.63,2.07,0,4.09-.9,6.08-2.7,1.98-1.8,3.46-4.09,4.46-6.89l7.16-33.34Z"/>
    <path class="cls-2" d="M653.28,175.71c2.34,0,4.43-1.01,6.28-3.04,1.84-2.03,3.35-4.97,4.52-8.84l9.18-43.33h19.44l-9.72,45.9c-.18.81-.32,1.55-.41,2.23-.09.68-.13,1.37-.13,2.09,0,1.8.43,3.08,1.28,3.85.85.77,2.27,1.15,4.25,1.15,2.34,0,4.46-1.03,6.34-3.1,1.89-2.07,3.42-4.99,4.59-8.77h5.67c-2.88,8.28-6.61,14.51-11.21,18.7-4.59,4.18-9.9,6.28-15.93,6.28-3.87,0-6.98-1.1-9.32-3.31-2.34-2.2-3.69-5.38-4.05-9.52-2.61,4.32-5.56,7.54-8.84,9.65-3.29,2.12-7,3.17-11.14,3.17-4.5,0-8.03-1.42-10.6-4.25-2.57-2.83-3.85-6.82-3.85-11.95,0-1.17.09-2.5.27-3.98.18-1.48.45-3.08.81-4.79l9.18-43.33h19.44l-9.72,45.9c-.18.72-.29,1.37-.34,1.96-.05.59-.07,1.19-.07,1.82,0,1.8.34,3.17,1.01,4.12.67.95,1.69,1.42,3.04,1.42Z"/>
    <path class="cls-2" d="M748.45,132.24c0,7.47-3.06,13.97-9.18,19.51-6.12,5.54-13.41,8.53-21.87,8.98-.09,1.53-.16,2.68-.2,3.44-.05.77-.07,1.42-.07,1.96,0,4.14.7,7.07,2.09,8.77,1.39,1.71,3.94,2.57,7.63,2.57,4.23,0,8.12-.97,11.68-2.9,3.55-1.93,7.63-5.51,12.22-10.73h4.59c-5.22,8.46-10.89,14.74-17.01,18.83-6.12,4.1-12.83,6.14-20.12,6.14s-12.17-1.8-15.73-5.4c-3.56-3.6-5.33-8.95-5.33-16.06,0-5.13.81-10.57,2.43-16.34,1.62-5.76,3.78-10.89,6.48-15.39,3.33-5.4,7.31-9.47,11.95-12.22,4.63-2.74,9.83-4.12,15.59-4.12,4.95,0,8.66,1.06,11.14,3.17,2.47,2.12,3.71,5.38,3.71,9.79ZM734.68,126.44c-3.06,0-6.14,2.72-9.25,8.17-3.1,5.45-5.42,11.99-6.95,19.64,5.22-.36,9.79-2.77,13.7-7.22s5.87-9.47,5.87-15.05c0-1.89-.27-3.28-.81-4.19-.54-.9-1.4-1.35-2.56-1.35Z"/>
  </g>
</svg>