<?xml version="1.0" encoding="UTF-8"?>
<svg id="Laag_5" data-name="Laag 5" xmlns="http://www.w3.org/2000/svg" viewBox="0 0 113.39 113.39">
  <defs>
    <style>
      .cls-1 {
        fill: #77151c;
      }
    </style>
  </defs>
  <path class="cls-1" d="M64.34,22.75c8.22,0,7.29,14.45,13.57,20.09,6.28,5.64,18.19.63,20.07,7.21,1.88,6.58-12.54,10.03-14.42,16.93-1.88,6.9,11.74,19.39,5.09,25.68-6.65,6.29-13.2-3.68-24.19-3.24-10.99.44-20.01,9.53-26.6,5.46-6.59-4.07,6.01-20.71,4.71-26.82s-14.5-11.23-14.49-17.69c.01-6.46,14.52-4.7,18.81-9.72,4.29-5.02,9.24-17.9,17.46-17.9Z"/>
</svg>