<?xml version="1.0" encoding="UTF-8"?>
<svg id="Laag_5" data-name="Laag 5" xmlns="http://www.w3.org/2000/svg" viewBox="0 0 113.39 113.39">
  <defs>
    <style>
      .cls-1 {
        fill: #e36414;
      }
    </style>
  </defs>
  <path class="cls-1" d="M34.12,31.45c-4.47.95-7.3,3.62-7.3,14.01s.49,5.95,2.1,11.87c1.61,5.91-.9,5.53,1.55,13.02,2.45,7.49,4.25,10.15,9.08,12.47,4.84,2.32,6.94,1.62,9.76.93s4.28-3.27,7.05-3.77,6.26,1.89,11,2.48,16.76.35,19.09-6.68c2.33-7.03-1.07-39.11-1.07-39.11,0,0-5.09-.14-8.52-1.51s1.01-3.47-4.19-5.5-20.02.96-24.08,2.37-10.01-1.53-14.48-.58Z"/>
</svg>